PathFileType	4	(X/Y/Z)	RBDS028static.trc
DataRate	CameraRate	NumFrames	NumMarkers	Units	OrigDataRate	OrigDataStartFrame	OrigNumFrames
150.000000	150.000000	4	48	mm	150.000000	112	150
Frame#	Time	L.Ankle			L.Ankle.Medial			L.ASIS			L.GTR			L.Heel.Bottom			L.Heel.Lateral			L.Heel.Top			L.HF			L.Iliac.Crest			L.Knee			L.Knee.Medial			L.MT1			L.MT2			L.MT5			L.PSIS			L.Shank.Bottom.Lateral			L.Shank.Bottom.Medial			L.Shank.Top.Lateral			L.Shank.Top.Medial			L.Thigh.Bottom.Lateral			L.Thigh.Bottom.Medial			L.Thigh.Top.Lateral			L.Thigh.Top.Medial			L.TT			R.Ankle			R.Ankle.Medial			R.ASIS			R.GTR			R.Heel.Bottom			R.Heel.Lateral			R.Heel.Top			R.HF			R.Iliac.Crest			R.Knee			R.Knee.Medial			R.MT1			R.MT2			R.MT5			R.PSIS			R.Shank.Bottom.Lateral			R.Shank.Bottom.Medial			R.Shank.Top.Lateral			R.Shank.Top.Medial			R.Thigh.Bottom.Lateral			R.Thigh.Bottom.Medial			R.Thigh.Top.Lateral			R.Thigh.Top.Medial			R.TT			
		X1	Y1	Z1	X2	Y2	Z2	X3	Y3	Z3	X4	Y4	Z4	X5	Y5	Z5	X6	Y6	Z6	X7	Y7	Z7	X8	Y8	Z8	X9	Y9	Z9	X10	Y10	Z10	X11	Y11	Z11	X12	Y12	Z12	X13	Y13	Z13	X14	Y14	Z14	X15	Y15	Z15	X16	Y16	Z16	X17	Y17	Z17	X18	Y18	Z18	X19	Y19	Z19	X20	Y20	Z20	X21	Y21	Z21	X22	Y22	Z22	X23	Y23	Z23	X24	Y24	Z24	X25	Y25	Z25	X26	Y26	Z26	X27	Y27	Z27	X28	Y28	Z28	X29	Y29	Z29	X30	Y30	Z30	X31	Y31	Z31	X32	Y32	Z32	X33	Y33	Z33	X34	Y34	Z34	X35	Y35	Z35	X36	Y36	Z36	X37	Y37	Z37	X38	Y38	Z38	X39	Y39	Z39	X40	Y40	Z40	X41	Y41	Z41	X42	Y42	Z42	X43	Y43	Z43	X44	Y44	Z44	X45	Y45	Z45	X46	Y46	Z46	X47	Y47	Z47	X48	Y48	Z48	

113	0.7466666666666667	712.0308837890625	92.80579376220703	1051.549438476563	730.343994140625	106.23876953125	1133.683349609375	832.549072265625	893.9666137695313	1107.892944335938	786.4246826171875	805.7498168945313	1061.311157226563	638.2120361328125	39.01684188842773	1087.612670898438	668.3443603515625	56.3383903503418	1044.79443359375	649.0900268554688	83.43730926513672	1088.58837890625	743.819580078125	412.8356018066406	1051.83642578125	768.3860473632813	944.5198364257813	1078.877563476563	748.4423828125	475.6814270019531	1059.267822265625	731.8694458007813	452.6373291015625	1172.017456054688	855.9004516601563	53.51657104492188	1131.995361328125	858.1224365234375	65.86765289306641	1084.62353515625	823.4061889648438	46.67873764038086	1021.399658203125	676.823486328125	923.5468139648438	1177.905517578125	714.1775512695313	171.2793579101563	1043.927001953125	673.9036254882813	169.2879333496094	1075.373046875	705.5396118164063	250.8659210205078	1032.003540039063	667.0550537109375	254.0223236083984	1068.583984375	771.4807739257813	574.5764770507813	1040.098022460938	704.4580688476563	576.1290893554688	1068.806274414063	772.3671264648438	684.9326171875	1040.123291015625	710.3933715820313	685.0137939453125	1072.184326171875	789.6158447265625	393.2311706542969	1103.934204101563	707.083984375	99.04844665527344	1406.857055664063	726.18359375	107.7285690307617	1324.670043945313	826.3638305664063	901.6660766601563	1347.7802734375	776.7725830078125	815.4560546875	1393.313720703125	636.6217651367188	38.16426467895508	1369.1064453125	666.6040649414063	59.23359298706055	1410.806396484375	646.72021484375	83.41831970214844	1367.587768554688	734.38623046875	419.8729858398438	1403.509643554688	773.7633666992188	962.260009765625	1367.37451171875	737.451416015625	482.2186889648438	1396.497924804688	732.9249267578125	458.5942687988281	1280.251098632813	853.5925903320313	53.90263366699219	1331.638305664063	857.9215087890625	64.34760284423828	1379.96484375	819.6922607421875	46.67667388916016	1441.614624023438	676.2061767578125	926.8114624023438	1270.707275390625	704.9140625	178.1292419433594	1414.605590820313	666.2691040039063	177.9557952880859	1374.244262695313	694.409912109375	258.36328125	1421.867309570313	658.7080078125	257.5710754394531	1381.621215820313	746.5465087890625	570.1618041992188	1410.852416992188	687.0252685546875	572.449951171875	1370.103149414063	749.2933349609375	680.6753540039063	1410.1455078125	692.0530395507813	682.2598876953125	1371.790283203125	779.2702026367188	395.7198486328125	1358.251342773438	
114	0.7533333333333334	712.0253295898438	92.80178833007813	1051.547119140625	730.3600463867188	106.234489440918	1133.689453125	832.510986328125	893.9835815429688	1107.894775390625	786.4093627929688	805.7548217773438	1061.315307617188	638.2079467773438	39.02101898193359	1087.607299804688	668.3411865234375	56.33757781982422	1044.787475585938	649.0919799804688	83.44291687011719	1088.58642578125	743.8321533203125	412.8257141113281	1051.846801757813	768.34130859375	944.5303955078125	1078.894287109375	748.4595336914063	475.6831970214844	1059.273559570313	731.8892822265625	452.6355285644531	1172.030029296875	855.8966674804688	53.52053070068359	1131.9873046875	858.1198120117188	65.8719482421875	1084.6240234375	823.4044189453125	46.68003463745117	1021.402893066406	676.7843627929688	923.5335693359375	1177.9013671875	714.1862182617188	171.2793731689453	1043.926025390625	673.9158935546875	169.2878875732422	1075.366088867188	705.5486450195313	250.8672637939453	1032.009521484375	667.0650024414063	254.0255432128906	1068.576049804688	771.5020751953125	574.5737915039063	1040.104858398438	704.46533203125	576.1268920898438	1068.807006835938	772.3474731445313	684.9326782226563	1040.122192382813	710.3931884765625	685.0070190429688	1072.185546875	789.630859375	393.2362976074219	1103.94677734375	706.8388061523438	98.65653228759766	1406.680541992188	726.190185546875	107.724235534668	1324.663330078125	826.32568359375	901.6749267578125	1347.78515625	776.7689208984375	815.3362426757813	1393.073974609375	636.6250610351563	38.15890884399414	1369.110107421875	666.5983276367188	59.23484420776367	1410.81201171875	646.7298583984375	83.41629791259766	1367.58740234375	734.4168701171875	419.8711242675781	1403.50830078125	773.7046508789063	962.2634887695313	1367.370849609375	737.4910888671875	482.2240295410156	1396.505249023438	732.97412109375	458.5916748046875	1280.248901367188	853.5968627929688	53.89630126953125	1331.64306640625	857.9252319335938	64.34136962890625	1379.958862304688	819.6900024414063	46.6671142578125	1441.606567382813	676.152587890625	926.802001953125	1270.70166015625	704.930419921875	178.1333160400391	1414.609619140625	666.286376953125	177.9479522705078	1374.242431640625	694.4299926757813	258.3524169921875	1421.86767578125	658.723388671875	257.5673522949219	1381.616333007813	746.56005859375	570.1591186523438	1410.839599609375	687.0361328125	572.4415283203125	1370.103271484375	749.2841796875	680.6869506835938	1410.143432617188	692.0400390625	682.2603149414063	1371.781127929688	779.2870483398438	395.7109985351563	1358.233032226563	
115	0.76	712.0166015625	92.79421234130859	1051.549072265625	730.3494262695313	106.2367935180664	1133.688720703125	832.4728393554688	893.9970703125	1107.8818359375	786.3856811523438	805.7548217773438	1061.3203125	638.2064208984375	39.02883911132813	1087.609375	668.334716796875	56.32988357543945	1044.790405273438	649.0942993164063	83.44844818115234	1088.57958984375	743.8499145507813	412.8245849609375	1051.840454101563	768.2909545898438	944.5388793945313	1078.902587890625	748.4868774414063	475.6839904785156	1059.280151367188	731.9181518554688	452.639404296875	1172.036865234375	855.8818969726563	53.51266479492188	1132.001342773438	858.1214599609375	65.87006378173828	1084.62109375	823.4103393554688	46.67874145507813	1021.405639648438	676.7420654296875	923.5128784179688	1177.896850585938	714.1944580078125	171.2730102539063	1043.93115234375	673.9268798828125	169.2931823730469	1075.3603515625	705.5632934570313	250.8595428466797	1032.009033203125	667.0753784179688	254.0178833007813	1068.583862304688	771.5029907226563	574.57568359375	1040.099731445313	704.4872436523438	576.1096801757813	1068.800048828125	772.3485107421875	684.9353637695313	1040.122680664063	710.3795776367188	685.003662109375	1072.181274414063	789.663330078125	393.21484375	1103.953369140625	706.83349609375	98.65481567382813	1406.686767578125	726.1765747070313	107.7329940795898	1324.658447265625	826.2733764648438	901.6738891601563	1347.78076171875	776.7432250976563	815.337158203125	1393.079956054688	636.623291015625	38.16371536254883	1369.112060546875	666.6051635742188	59.23993301391602	1410.820068359375	646.7241821289063	83.42627716064453	1367.593139648438	734.4534912109375	419.8574523925781	1403.47998046875	773.6470947265625	962.2626342773438	1367.384765625	737.5054321289063	482.2181396484375	1396.489868164063	732.99951171875	458.5686645507813	1280.2509765625	853.6061401367188	53.88199234008789	1331.645751953125	857.923095703125	64.33441162109375	1379.957763671875	819.6886596679688	46.66836166381836	1441.61474609375	676.10693359375	926.784912109375	1270.697143554688	704.9444580078125	178.1322631835938	1414.606323242188	666.297119140625	177.9515991210938	1374.231811523438	694.4495239257813	258.3594360351563	1421.862548828125	658.7421875	257.5721130371094	1381.613891601563	746.5744018554688	570.1544799804688	1410.83251953125	687.0466918945313	572.4254760742188	1370.082641601563	749.279296875	680.6813354492188	1410.142456054688	692.0405883789063	682.2435913085938	1371.77685546875	779.3256225585938	395.7040405273438	1358.219482421875	
116	0.7666666666666667	712.0206298828125	92.8043212890625	1051.542602539063	730.3573608398438	106.2305297851563	1133.68310546875	832.4417724609375	894.0081176757813	1107.88037109375	786.3693237304688	805.76171875	1061.309692382813	638.2133178710938	39.02445983886719	1087.608764648438	668.337890625	56.33106231689453	1044.784912109375	649.0962524414063	83.44068908691406	1088.579833984375	743.8742065429688	412.823974609375	1051.843505859375	768.2523803710938	944.5476684570313	1078.925659179688	748.4928588867188	475.6777954101563	1059.281127929688	731.9271850585938	452.6240234375	1172.039428710938	855.8889770507813	53.52529144287109	1132.001831054688	858.123046875	65.87404632568359	1084.630615234375	823.4024047851563	46.67616653442383	1021.399658203125	676.6973876953125	923.5025634765625	1177.890869140625	714.1895141601563	171.2704620361328	1043.921752929688	673.9287719726563	169.2933502197266	1075.352294921875	705.5709838867188	250.8612823486328	1032.006103515625	667.09033203125	254.0179443359375	1068.574462890625	771.498779296875	574.5770874023438	1040.096557617188	704.4915771484375	576.1085815429688	1068.791748046875	772.3375854492188	684.9354248046875	1040.11767578125	710.3781127929688	684.9905395507813	1072.185913085938	789.6820678710938	393.2249450683594	1103.947143554688	706.8414306640625	98.65106201171875	1406.677612304688	726.1749877929688	107.7273406982422	1324.660278320313	826.2376708984375	901.6884765625	1347.780883789063	776.69091796875	815.45361328125	1393.305786132813	636.6270141601563	38.15806579589844	1369.116088867188	666.6058349609375	59.23583602905273	1410.824096679688	646.72802734375	83.41874694824219	1367.595947265625	734.478515625	419.8555908203125	1403.47265625	773.5949096679688	962.2523803710938	1367.384765625	737.5338134765625	482.2113037109375	1396.47314453125	733.0423583984375	458.5756530761719	1280.225219726563	853.606201171875	53.88901138305664	1331.638916015625	857.931640625	64.34234619140625	1379.96240234375	819.7002563476563	46.66064834594727	1441.616821289063	676.0639038085938	926.7699584960938	1270.692993164063	704.959716796875	178.1281280517578	1414.606079101563	666.3015747070313	177.9569091796875	1374.239990234375	694.4656982421875	258.3470458984375	1421.85595703125	658.7576293945313	257.5729064941406	1381.6123046875	746.5820922851563	570.1611328125	1410.833374023438	687.0608520507813	572.4154052734375	1370.078002929688	749.2702026367188	680.6705322265625	1410.142333984375	692.0296630859375	682.2366333007813	1371.771728515625	779.3440551757813	395.6926574707031	1358.234619140625	
